M48
; DRILL file {KiCad 9.0.2+dfsg-1} date 2026-01-21T20:29:19-0300
; FORMAT={-:-/ absolute / metric / decimal}
; #@! TF.CreationDate,2026-01-21T20:29:19-03:00
; #@! TF.GenerationSoftware,Kicad,Pcbnew,9.0.2+dfsg-1
; #@! TF.FileFunction,Plated,1,2,PTH
FMAT,2
METRIC
; #@! TA.AperFunction,Plated,PTH,ComponentDrill
T1C0.500
; #@! TA.AperFunction,Plated,PTH,ViaDrill
T2C0.700
; #@! TA.AperFunction,Plated,PTH,ComponentDrill
T3C0.800
; #@! TA.AperFunction,Plated,PTH,ComponentDrill
T4C0.900
; #@! TA.AperFunction,Plated,PTH,ComponentDrill
T5C0.950
; #@! TA.AperFunction,Plated,PTH,ComponentDrill
T6C1.000
; #@! TA.AperFunction,Plated,PTH,ComponentDrill
T7C1.090
; #@! TA.AperFunction,Plated,PTH,ComponentDrill
T8C1.100
; #@! TA.AperFunction,Plated,PTH,ComponentDrill
T9C1.570
%
G90
G05
T1
X142.24Y-121.73
X142.24Y-123.73
X142.24Y-125.73
X145.86Y-43.18
X147.86Y-43.18
X149.86Y-43.18
X181.42Y-41.91
X183.42Y-41.91
X185.42Y-41.91
T2
X97.79Y-80.01
X97.79Y-90.17
X104.269Y-90.17
X115.57Y-80.01
X118.11Y-38.1
X118.11Y-45.72
X132.08Y-38.1
X132.08Y-46.99
T3
X106.68Y-110.49
X106.68Y-120.65
X111.76Y-110.49
X111.76Y-120.65
X116.84Y-110.49
X116.84Y-120.65
X147.32Y-51.11
X147.32Y-54.61
X147.32Y-59.69
X147.32Y-69.85
X147.32Y-72.39
X147.32Y-82.55
X151.13Y-74.97
X151.13Y-79.97
X156.21Y-48.57
X156.21Y-52.07
X166.37Y-48.57
X166.37Y-52.07
T4
X104.14Y-124.46
X104.14Y-127.0
X111.76Y-124.46
X111.76Y-127.0
X119.38Y-124.46
X119.38Y-127.0
T5
X107.95Y-67.31
X107.95Y-74.93
X108.03Y-59.69
X108.03Y-93.98
X110.45Y-67.31
X110.45Y-74.93
X110.53Y-59.69
X110.53Y-93.98
X112.95Y-67.31
X112.95Y-74.93
X113.03Y-59.69
X113.03Y-93.98
X115.45Y-67.31
X115.45Y-74.93
X115.53Y-59.69
X115.53Y-93.98
T6
X105.41Y-49.53
X107.95Y-49.53
X110.49Y-49.53
X113.03Y-49.53
X115.57Y-49.53
X118.11Y-49.53
X124.46Y-62.23
X124.46Y-64.77
X124.46Y-67.31
X124.46Y-69.85
X124.46Y-72.39
X124.46Y-74.93
X124.46Y-77.47
X124.46Y-80.01
X124.46Y-82.55
X124.46Y-85.09
X124.46Y-87.63
X124.46Y-90.17
X124.46Y-92.71
X124.46Y-95.25
X124.46Y-97.79
X124.46Y-100.33
X124.46Y-102.87
X124.46Y-105.41
X124.46Y-107.95
X124.46Y-110.49
X142.24Y-62.23
X142.24Y-64.77
X142.24Y-67.31
X142.24Y-69.85
X142.24Y-72.39
X142.24Y-74.93
X142.24Y-77.47
X142.24Y-80.01
X142.24Y-82.55
X142.24Y-85.09
X142.24Y-87.63
X142.24Y-90.17
X142.24Y-92.71
X142.24Y-95.25
X142.24Y-97.79
X142.24Y-100.33
X142.24Y-102.87
X142.24Y-105.41
X142.24Y-107.95
X142.24Y-110.49
X151.41Y-87.63
X151.41Y-127.13
X154.54Y-58.6
X154.54Y-81.1
X158.04Y-58.6
X164.54Y-58.6
X168.04Y-58.6
X168.04Y-81.1
X168.91Y-87.63
X168.91Y-127.13
X172.72Y-43.18
T7
X130.89Y-123.19
X133.43Y-123.19
T8
X108.51Y-82.84
X108.51Y-87.34
X108.51Y-100.91
X108.51Y-105.41
X115.01Y-82.84
X115.01Y-87.34
X115.01Y-100.91
X115.01Y-105.41
X154.94Y-43.18
X165.1Y-43.18
T9
X182.88Y-49.71
X182.88Y-122.61
M30
